<svg id="visual" viewBox="0 0 960 300" width="960" height="300" xmlns="http://www.w3.org/2000/svg" xmlns:xlink="http://www.w3.org/1999/xlink" version="1.1"><path d="M0 116L22.8 112.3C45.7 108.7 91.3 101.3 137 101.2C182.7 101 228.3 108 274 108.8C319.7 109.7 365.3 104.3 411.2 98.3C457 92.3 503 85.7 548.8 84.5C594.7 83.3 640.3 87.7 686 93.8C731.7 100 777.3 108 823 111.7C868.7 115.3 914.3 114.7 937.2 114.3L960 114L960 0L937.2 0C914.3 0 868.7 0 823 0C777.3 0 731.7 0 686 0C640.3 0 594.7 0 548.8 0C503 0 457 0 411.2 0C365.3 0 319.7 0 274 0C228.3 0 182.7 0 137 0C91.3 0 45.7 0 22.8 0L0 0Z" fill="#576057"></path><path d="M0 77L22.8 79.5C45.7 82 91.3 87 137 87.7C182.7 88.3 228.3 84.7 274 84.5C319.7 84.3 365.3 87.7 411.2 86C457 84.3 503 77.7 548.8 76.8C594.7 76 640.3 81 686 79.8C731.7 78.7 777.3 71.3 823 69.8C868.7 68.3 914.3 72.7 937.2 74.8L960 77L960 0L937.2 0C914.3 0 868.7 0 823 0C777.3 0 731.7 0 686 0C640.3 0 594.7 0 548.8 0C503 0 457 0 411.2 0C365.3 0 319.7 0 274 0C228.3 0 182.7 0 137 0C91.3 0 45.7 0 22.8 0L0 0Z" fill="#5d665d"></path><path d="M0 46L22.8 51.3C45.7 56.7 91.3 67.3 137 70.5C182.7 73.7 228.3 69.3 274 68.5C319.7 67.7 365.3 70.3 411.2 67.5C457 64.7 503 56.3 548.8 56.2C594.7 56 640.3 64 686 68.8C731.7 73.7 777.3 75.3 823 72.5C868.7 69.7 914.3 62.3 937.2 58.7L960 55L960 0L937.2 0C914.3 0 868.7 0 823 0C777.3 0 731.7 0 686 0C640.3 0 594.7 0 548.8 0C503 0 457 0 411.2 0C365.3 0 319.7 0 274 0C228.3 0 182.7 0 137 0C91.3 0 45.7 0 22.8 0L0 0Z" fill="#636c63"></path><path d="M0 57L22.8 53.5C45.7 50 91.3 43 137 38.5C182.7 34 228.3 32 274 35.5C319.7 39 365.3 48 411.2 49.3C457 50.7 503 44.3 548.8 41.7C594.7 39 640.3 40 686 38.3C731.7 36.7 777.3 32.3 823 34.2C868.7 36 914.3 44 937.2 48L960 52L960 0L937.2 0C914.3 0 868.7 0 823 0C777.3 0 731.7 0 686 0C640.3 0 594.7 0 548.8 0C503 0 457 0 411.2 0C365.3 0 319.7 0 274 0C228.3 0 182.7 0 137 0C91.3 0 45.7 0 22.8 0L0 0Z" fill="#697269"></path><path d="M0 20L22.8 19.7C45.7 19.3 91.3 18.7 137 17.7C182.7 16.7 228.3 15.3 274 16.5C319.7 17.7 365.3 21.3 411.2 21.8C457 22.3 503 19.7 548.8 18.5C594.7 17.3 640.3 17.7 686 20.3C731.7 23 777.3 28 823 28.2C868.7 28.3 914.3 23.7 937.2 21.3L960 19L960 0L937.2 0C914.3 0 868.7 0 823 0C777.3 0 731.7 0 686 0C640.3 0 594.7 0 548.8 0C503 0 457 0 411.2 0C365.3 0 319.7 0 274 0C228.3 0 182.7 0 137 0C91.3 0 45.7 0 22.8 0L0 0Z" fill="#6f796f"></path></svg>