<svg id="visual" viewBox="0 0 960 300" width="960" height="300" xmlns="http://www.w3.org/2000/svg" xmlns:xlink="http://www.w3.org/1999/xlink" version="1.1"><path d="M0 111L22.8 111.7C45.7 112.3 91.3 113.7 137 115.2C182.7 116.7 228.3 118.3 274 111.7C319.7 105 365.3 90 411.2 89.2C457 88.3 503 101.7 548.8 107.5C594.7 113.3 640.3 111.7 686 106.7C731.7 101.7 777.3 93.3 823 91.8C868.7 90.3 914.3 95.7 937.2 98.3L960 101L960 0L937.2 0C914.3 0 868.7 0 823 0C777.3 0 731.7 0 686 0C640.3 0 594.7 0 548.8 0C503 0 457 0 411.2 0C365.3 0 319.7 0 274 0C228.3 0 182.7 0 137 0C91.3 0 45.7 0 22.8 0L0 0Z" fill="#576057"></path><path d="M0 97L22.8 94.7C45.7 92.3 91.3 87.7 137 88.2C182.7 88.7 228.3 94.3 274 92.2C319.7 90 365.3 80 411.2 73.8C457 67.7 503 65.3 548.8 68.2C594.7 71 640.3 79 686 80.5C731.7 82 777.3 77 823 75.5C868.7 74 914.3 76 937.2 77L960 78L960 0L937.2 0C914.3 0 868.7 0 823 0C777.3 0 731.7 0 686 0C640.3 0 594.7 0 548.8 0C503 0 457 0 411.2 0C365.3 0 319.7 0 274 0C228.3 0 182.7 0 137 0C91.3 0 45.7 0 22.8 0L0 0Z" fill="#5d665d"></path><path d="M0 64L22.8 62C45.7 60 91.3 56 137 56C182.7 56 228.3 60 274 62C319.7 64 365.3 64 411.2 62.5C457 61 503 58 548.8 58.5C594.7 59 640.3 63 686 64C731.7 65 777.3 63 823 59.2C868.7 55.3 914.3 49.7 937.2 46.8L960 44L960 0L937.2 0C914.3 0 868.7 0 823 0C777.3 0 731.7 0 686 0C640.3 0 594.7 0 548.8 0C503 0 457 0 411.2 0C365.3 0 319.7 0 274 0C228.3 0 182.7 0 137 0C91.3 0 45.7 0 22.8 0L0 0Z" fill="#636c63"></path><path d="M0 40L22.8 38.3C45.7 36.7 91.3 33.3 137 32.5C182.7 31.7 228.3 33.3 274 36C319.7 38.7 365.3 42.3 411.2 43.3C457 44.3 503 42.7 548.8 40.3C594.7 38 640.3 35 686 36.7C731.7 38.3 777.3 44.7 823 44.7C868.7 44.7 914.3 38.3 937.2 35.2L960 32L960 0L937.2 0C914.3 0 868.7 0 823 0C777.3 0 731.7 0 686 0C640.3 0 594.7 0 548.8 0C503 0 457 0 411.2 0C365.3 0 319.7 0 274 0C228.3 0 182.7 0 137 0C91.3 0 45.7 0 22.8 0L0 0Z" fill="#697269"></path><path d="M0 32L22.8 29.2C45.7 26.3 91.3 20.7 137 18.3C182.7 16 228.3 17 274 18.3C319.7 19.7 365.3 21.3 411.2 21.8C457 22.3 503 21.7 548.8 23.2C594.7 24.7 640.3 28.3 686 30.3C731.7 32.3 777.3 32.7 823 33.3C868.7 34 914.3 35 937.2 35.5L960 36L960 0L937.2 0C914.3 0 868.7 0 823 0C777.3 0 731.7 0 686 0C640.3 0 594.7 0 548.8 0C503 0 457 0 411.2 0C365.3 0 319.7 0 274 0C228.3 0 182.7 0 137 0C91.3 0 45.7 0 22.8 0L0 0Z" fill="#6f796f"></path></svg>