<svg id="visual" viewBox="0 0 900 300" width="900" height="300" xmlns="http://www.w3.org/2000/svg" xmlns:xlink="http://www.w3.org/1999/xlink" version="1.1"><path d="M0 82L13.7 74C27.3 66 54.7 50 82 48C109.3 46 136.7 58 163.8 58C191 58 218 46 245.2 45C272.3 44 299.7 54 327 56C354.3 58 381.7 52 409 48C436.3 44 463.7 42 491 40.5C518.3 39 545.7 38 573 45C600.3 52 627.7 67 654.8 74.5C682 82 709 82 736.2 77.5C763.3 73 790.7 64 818 62.5C845.3 61 872.7 67 886.3 70L900 73L900 0L886.3 0C872.7 0 845.3 0 818 0C790.7 0 763.3 0 736.2 0C709 0 682 0 654.8 0C627.7 0 600.3 0 573 0C545.7 0 518.3 0 491 0C463.7 0 436.3 0 409 0C381.7 0 354.3 0 327 0C299.7 0 272.3 0 245.2 0C218 0 191 0 163.8 0C136.7 0 109.3 0 82 0C54.7 0 27.3 0 13.7 0L0 0Z" fill="#6f796f"></path><path d="M0 133L13.7 121.5C27.3 110 54.7 87 82 83C109.3 79 136.7 94 163.8 94C191 94 218 79 245.2 77.5C272.3 76 299.7 88 327 88.5C354.3 89 381.7 78 409 76.5C436.3 75 463.7 83 491 84.5C518.3 86 545.7 81 573 84C600.3 87 627.7 98 654.8 105C682 112 709 115 736.2 109C763.3 103 790.7 88 818 86.5C845.3 85 872.7 97 886.3 103L900 109L900 71L886.3 68C872.7 65 845.3 59 818 60.5C790.7 62 763.3 71 736.2 75.5C709 80 682 80 654.8 72.5C627.7 65 600.3 50 573 43C545.7 36 518.3 37 491 38.5C463.7 40 436.3 42 409 46C381.7 50 354.3 56 327 54C299.7 52 272.3 42 245.2 43C218 44 191 56 163.8 56C136.7 56 109.3 44 82 46C54.7 48 27.3 64 13.7 72L0 80Z" fill="#697269"></path><path d="M0 157L13.7 148C27.3 139 54.7 121 82 116.5C109.3 112 136.7 121 163.8 122C191 123 218 116 245.2 121.5C272.3 127 299.7 145 327 146C354.3 147 381.7 131 409 125C436.3 119 463.7 123 491 126C518.3 129 545.7 131 573 135.5C600.3 140 627.7 147 654.8 148C682 149 709 144 736.2 134C763.3 124 790.7 109 818 112.5C845.3 116 872.7 138 886.3 149L900 160L900 107L886.3 101C872.7 95 845.3 83 818 84.5C790.7 86 763.3 101 736.2 107C709 113 682 110 654.8 103C627.7 96 600.3 85 573 82C545.7 79 518.3 84 491 82.5C463.7 81 436.3 73 409 74.5C381.7 76 354.3 87 327 86.5C299.7 86 272.3 74 245.2 75.5C218 77 191 92 163.8 92C136.7 92 109.3 77 82 81C54.7 85 27.3 108 13.7 119.5L0 131Z" fill="#636c63"></path><path d="M0 226L13.7 215.5C27.3 205 54.7 184 82 182C109.3 180 136.7 197 163.8 206C191 215 218 216 245.2 215C272.3 214 299.7 211 327 205C354.3 199 381.7 190 409 194C436.3 198 463.7 215 491 227.5C518.3 240 545.7 248 573 242C600.3 236 627.7 216 654.8 213C682 210 709 224 736.2 219.5C763.3 215 790.7 192 818 194C845.3 196 872.7 223 886.3 236.5L900 250L900 158L886.3 147C872.7 136 845.3 114 818 110.5C790.7 107 763.3 122 736.2 132C709 142 682 147 654.8 146C627.7 145 600.3 138 573 133.5C545.7 129 518.3 127 491 124C463.7 121 436.3 117 409 123C381.7 129 354.3 145 327 144C299.7 143 272.3 125 245.2 119.5C218 114 191 121 163.8 120C136.7 119 109.3 110 82 114.5C54.7 119 27.3 137 13.7 146L0 155Z" fill="#5d665d"></path><path d="M0 301L13.7 301C27.3 301 54.7 301 82 301C109.3 301 136.7 301 163.8 301C191 301 218 301 245.2 301C272.3 301 299.7 301 327 301C354.3 301 381.7 301 409 301C436.3 301 463.7 301 491 301C518.3 301 545.7 301 573 301C600.3 301 627.7 301 654.8 301C682 301 709 301 736.2 301C763.3 301 790.7 301 818 301C845.3 301 872.7 301 886.3 301L900 301L900 248L886.3 234.5C872.7 221 845.3 194 818 192C790.7 190 763.3 213 736.2 217.5C709 222 682 208 654.8 211C627.7 214 600.3 234 573 240C545.7 246 518.3 238 491 225.5C463.7 213 436.3 196 409 192C381.7 188 354.3 197 327 203C299.7 209 272.3 212 245.2 213C218 214 191 213 163.8 204C136.7 195 109.3 178 82 180C54.7 182 27.3 203 13.7 213.5L0 224Z" fill="#576057"></path></svg>